<?xml version="1.0" encoding="UTF-8"?>
<svg id="Layer_1" xmlns="http://www.w3.org/2000/svg" version="1.1" viewBox="0 0 85.41 82.96">
  <!-- Generator: Adobe Illustrator 29.8.2, SVG Export Plug-In . SVG Version: 2.1.1 Build 3)  -->
  <defs>
    <style>
      .st0 {
        fill: #fff;
      }
    </style>
  </defs>
  <path class="st0" d="M8.39,58.45h9.8c.27,0,.54-.11.73-.3.2-.2.3-.46.3-.74v-9.8c0-.28-.11-.54-.3-.74-.2-.2-.46-.3-.73-.3h-9.8c-.58,0-1.04.47-1.04,1.04v9.8h0c0,.57.46,1.04,1.04,1.04h0ZM9.44,48.65h7.72v7.72h-7.73v-7.72h0Z"/>
  <path class="st0" d="M28,58.45h9.8c.28,0,.54-.11.74-.3.2-.2.3-.46.3-.74v-9.8c0-.28-.11-.54-.3-.74s-.46-.3-.74-.3h-9.8c-.57,0-1.04.47-1.04,1.04v9.8h0c0,.57.46,1.04,1.04,1.04h0ZM29.04,48.65h7.72v7.72h-7.72s0-7.72,0-7.72Z"/>
  <path class="st0" d="M47.61,58.45h9.8c.28,0,.54-.11.73-.3.2-.2.3-.46.3-.74v-9.8c0-.28-.11-.54-.3-.74-.2-.2-.46-.3-.73-.3h-9.8c-.57,0-1.04.47-1.04,1.04v9.8h0c0,.57.47,1.04,1.04,1.04h0ZM48.65,48.65h7.72v7.72h-7.72v-7.72Z"/>
  <path class="st0" d="M67.21,58.45h9.8c.28,0,.54-.11.74-.3.2-.2.3-.46.3-.74v-9.8c0-.28-.11-.54-.3-.74-.2-.2-.46-.3-.74-.3h-9.8c-.57,0-1.04.47-1.04,1.04v9.8h0c0,.57.46,1.04,1.04,1.04h0ZM68.26,48.65h7.72v7.72h-7.72v-7.72Z"/>
  <path class="st0" d="M28,41.3h9.8c.28,0,.54-.11.74-.3s.3-.46.3-.74v-9.8c0-.28-.11-.54-.3-.74s-.46-.3-.74-.3h-9.8c-.57,0-1.04.46-1.04,1.04v9.8h0c0,.27.11.54.3.73s.46.3.73.3h.01ZM29.04,31.49h7.72v7.72h-7.72s0-7.72,0-7.72Z"/>
  <path class="st0" d="M47.61,41.3h9.8c.28,0,.54-.11.73-.3.2-.2.3-.46.3-.74v-9.8c0-.28-.11-.54-.3-.74-.2-.2-.46-.3-.73-.3h-9.8c-.57,0-1.04.46-1.04,1.04v9.8h0c0,.27.11.54.3.73s.46.3.74.3h0ZM48.65,31.49h7.72v7.72h-7.72v-7.72Z"/>
  <path class="st0" d="M67.21,41.3h9.8c.28,0,.54-.11.74-.3.2-.2.3-.46.3-.74v-9.8c0-.28-.11-.54-.3-.74-.2-.2-.46-.3-.74-.3h-9.8c-.57,0-1.04.46-1.04,1.04v9.8h0c0,.27.11.54.3.73.2.2.46.3.73.3h0ZM68.26,31.49h7.72v7.72h-7.72v-7.72Z"/>
  <path class="st0" d="M8.39,75.61h9.8c.27,0,.54-.11.73-.3.2-.2.3-.46.3-.73v-9.8c0-.28-.11-.54-.3-.74-.2-.2-.46-.3-.73-.3h-9.8c-.58,0-1.04.47-1.04,1.04v9.8c0,.27.11.54.3.73.2.2.46.3.74.3h0ZM9.44,65.8h7.72v7.72h-7.73v-7.72h0Z"/>
  <path class="st0" d="M28,75.61h9.8c.28,0,.54-.11.74-.3.2-.2.3-.46.3-.73v-9.8c0-.28-.11-.54-.3-.74-.2-.2-.46-.3-.74-.3h-9.8c-.57,0-1.04.47-1.04,1.04v9.8c0,.27.11.54.3.73.2.2.46.3.73.3h.01ZM29.04,65.8h7.72v7.72h-7.72s0-7.72,0-7.72Z"/>
  <path class="st0" d="M47.61,75.61h9.8c.28,0,.54-.11.73-.3.2-.2.3-.46.3-.73v-9.8c0-.28-.11-.54-.3-.74-.2-.2-.46-.3-.73-.3h-9.8c-.57,0-1.04.47-1.04,1.04v9.8c0,.27.11.54.3.73.2.2.46.3.74.3h0ZM48.65,65.8h7.72v7.72h-7.72v-7.72Z"/>
  <path class="st0" d="M80.7,6.12h-5.09v-3.86c0-1.25-1.01-2.27-2.27-2.27h-2.45c-1.25,0-2.27,1.01-2.27,2.27v3.86h-12.62v-3.86C56,1.01,54.98,0,53.73,0h-2.45C50.03,0,49.01,1.01,49.01,2.27v3.86h-12.62v-3.86C36.39,1.01,35.37,0,34.12,0h-2.45C30.42,0,29.4,1.01,29.4,2.27v3.86h-12.62v-3.86C16.78,1.01,15.76,0,14.51,0h-2.45C10.81,0,9.79,1.01,9.79,2.27v3.86h-5.09C2.11,6.14,0,8.25,0,10.85v67.95C0,79.91.44,80.96,1.22,81.75c.78.79,1.84,1.22,2.95,1.22h77.09c1.11,0,2.16-.44,2.95-1.22s1.22-1.84,1.22-2.95V10.84c0-2.61-2.11-4.71-4.71-4.72,0,0-.02,0-.02,0ZM70.71,2.27c0-.1.08-.18.18-.18h2.45c.1,0,.18.08.18.18v9.99h-2.82V2.27h.01ZM51.11,2.27h0c0-.1.08-.18.18-.18h2.45c.1,0,.19.08.19.18v9.99h-2.82V2.27ZM31.5,2.27h0c0-.1.09-.18.19-.18h2.45c.1,0,.18.08.18.18v9.99h-2.82V2.27ZM11.89,2.27h0c0-.1.08-.18.18-.18h2.45c.1,0,.18.08.18.18v9.99h-2.82V2.27h0ZM2.08,10.84c0-1.45,1.18-2.63,2.63-2.64h5.09v4.04h-.18c-.57,0-1.04.47-1.04,1.04s.46,1.04,1.04,1.04h7.36c.57,0,1.04-.46,1.04-1.04s-.46-1.04-1.04-1.04h-.18v-4.05h12.62v4.04h-.18c-.57,0-1.04.47-1.04,1.04s.47,1.04,1.04,1.04h7.35c.58,0,1.04-.46,1.04-1.04s-.46-1.04-1.04-1.04h-.18v-4.05h12.62v4.04h-.18c-.58,0-1.04.47-1.04,1.04s.46,1.04,1.04,1.04h7.35c.57,0,1.04-.46,1.04-1.04s-.47-1.04-1.04-1.04h-.18v-4.05h12.62v4.04h-.18c-.57,0-1.04.47-1.04,1.04s.46,1.04,1.04,1.04h7.36c.57,0,1.04-.46,1.04-1.04s-.46-1.04-1.04-1.04h-.18v-4.05h5.09c1.45,0,2.63,1.18,2.63,2.64v11.21H2.08v-11.21.04ZM83.33,78.8c0,.55-.22,1.08-.61,1.47s-.92.61-1.47.61H4.16c-1.15,0-2.08-.93-2.08-2.08V24.14h81.25v54.66Z"/>
</svg>