<?xml version="1.0" encoding="UTF-8"?>
<svg id="Layer_1" xmlns="http://www.w3.org/2000/svg" version="1.1" viewBox="0 0 192.91 192.91">
  <!-- Generator: Adobe Illustrator 29.8.3, SVG Export Plug-In . SVG Version: 2.1.1 Build 3)  -->
  <path d="M111.27,147.46l-18.01-36.01h-13.34v36.01h-24.61V45.45h40.17c12.1,0,21.57,2.68,28.41,8.03,6.79,5.4,10.19,13.01,10.19,22.81h0c0,7.08-1.43,12.96-4.3,17.65-2.87,4.69-7.36,8.46-13.49,11.33h0l21.31,41.1v1.08h-26.33ZM79.92,64.46v27.98h15.57c4.69,0,8.2-1.22,10.55-3.66,2.34-2.44,3.52-5.86,3.52-10.26s-1.2-7.84-3.59-10.33c-2.34-2.49-5.83-3.73-10.47-3.73h-15.57Z"/>
</svg>