<?xml version="1.0" encoding="UTF-8"?>
<svg id="Logo" xmlns="http://www.w3.org/2000/svg" version="1.1" viewBox="0 0 120.57 7.82">
  <!-- Generator: Adobe Illustrator 29.8.3, SVG Export Plug-In . SVG Version: 2.1.1 Build 3)  -->
  <defs>
    <style>
      .st0 {
        fill: #231f20;
        stroke-width: .25px;
      }

      .st0, .st1 {
        stroke: #231f20;
        stroke-miterlimit: 10;
      }

      .st1 {
        fill: none;
        stroke-width: .5px;
      }
    </style>
  </defs>
  <g>
    <path class="st0" d="M4.97,7.54l-2.11-3.5h-.8v2.61c0,.26.11.44.35.53.11.06.32.09.62.09v.27H.12v-.27c.64-.02.96-.24.96-.67V1.41c0-.32-.1-.53-.3-.64-.12-.05-.34-.09-.66-.1v-.27h3.32c.62,0,1.14.11,1.61.33.66.31.99.8.99,1.49,0,.95-.71,1.54-2.13,1.77l1.57,2.61c.17.29.37.47.62.56.15.07.4.1.73.11v.27h-1.86,0ZM3.04.67c-.32,0-.55.03-.68.1-.21.1-.31.29-.31.56v2.43h.58c.78,0,1.34-.11,1.68-.33.38-.24.58-.66.58-1.28,0-.99-.63-1.49-1.86-1.49Z"/>
    <path class="st0" d="M10.94,7.69c-.26,0-.45-.07-.57-.2-.09-.09-.17-.25-.22-.5-.43.27-.74.45-.92.53-.27.11-.57.17-.9.17-.4,0-.71-.11-.97-.31-.26-.2-.39-.46-.39-.78,0-.52.36-.96,1.1-1.31.47-.22,1.17-.42,2.08-.61v-.66c0-.66-.32-1-.94-1-.27,0-.47.06-.6.15-.13.1-.25.26-.35.51-.13.33-.33.48-.58.48-.18,0-.31-.04-.4-.15-.09-.1-.13-.21-.13-.33,0-.22.18-.43.55-.63.4-.21.87-.32,1.44-.32,1.17,0,1.76.39,1.76,1.13v2.82c0,.36.11.54.34.54.14,0,.26-.07.36-.21l.21.11c-.15.37-.45.56-.87.56ZM10.15,4.94c-.62.13-1.13.32-1.55.57-.5.31-.74.64-.74,1.01,0,.24.08.44.25.57.14.13.33.19.56.19.42,0,.9-.2,1.47-.62v-1.73h0Z"/>
    <path class="st0" d="M15.23,7.54v-.27c.33,0,.53-.06.62-.17.08-.1.12-.33.12-.7v-1.97c0-.78-.31-1.18-.92-1.18-.43,0-.91.25-1.46.74v2.74c0,.22.08.37.24.45.1.06.27.09.54.09v.27h-2.23v-.27c.24,0,.42-.03.51-.1.13-.1.2-.31.2-.62V1.58c0-.41-.27-.62-.81-.62v-.29l1.41-.43h.15v3.38c.66-.58,1.27-.88,1.79-.88.89,0,1.34.54,1.34,1.6v2.17c0,.34.05.55.17.64.08.08.27.12.58.12v.27h-2.23Z"/>
    <path class="st0" d="M21.3,7.32c-.4.24-.85.37-1.35.37-.78,0-1.36-.26-1.75-.81-.31-.42-.46-.91-.46-1.51,0-.7.21-1.32.65-1.85.42-.52.95-.78,1.56-.78s1.13.28,1.53.8c.24.35.4.83.45,1.42h-3.3v.47c0,.4.1.77.31,1.11.29.48.7.72,1.27.72.51,0,1.04-.25,1.6-.77l.22.17c-.27.31-.52.53-.71.66h0ZM19.94,3.03c-.31,0-.58.12-.8.35-.29.29-.44.7-.46,1.23h2.34c-.02-1.06-.37-1.58-1.08-1.58Z"/>
    <path class="st0" d="M22.39,7.54v-.27c.27,0,.46-.03.56-.1.14-.08.22-.24.22-.5V1.56c0-.37-.29-.57-.85-.57v-.27l1.44-.46h.15v6.48c0,.22.07.37.22.45.09.06.25.09.49.09v.27s-2.24,0-2.24,0Z"/>
    <path class="st0" d="M33.09,7.03c-.45.42-1,.63-1.66.63-.31,0-.65-.08-1.02-.23-.22-.09-.41-.13-.54-.13s-.41.1-.8.3l-.76-1.83.27-.12c1.07,1.12,2.04,1.67,2.89,1.67.42,0,.79-.14,1.11-.43.31-.27.47-.62.47-1.03,0-.48-.22-.87-.66-1.13-.26-.15-.69-.31-1.29-.46-.85-.2-1.44-.42-1.77-.64-.55-.35-.81-.87-.81-1.55,0-.59.24-1.09.73-1.47.41-.31.85-.47,1.32-.47.17,0,.41.03.74.1.32.07.56.1.71.1.21,0,.43-.04.65-.13l.71,1.73-.27.11c-.76-1.06-1.58-1.58-2.48-1.58-.43,0-.78.13-1.06.39-.27.25-.41.55-.41.9,0,.44.2.79.62,1.03.27.18.77.34,1.47.51.69.17,1.21.35,1.56.56.63.4.95.94.95,1.64,0,.63-.23,1.14-.68,1.56h0Z"/>
    <path class="st0" d="M36.33,7.62c-.78,0-1.36-.26-1.76-.79-.33-.42-.48-.92-.48-1.52,0-.72.22-1.33.68-1.84.48-.53,1.09-.8,1.83-.8.42,0,.81.1,1.17.28.34.18.52.4.52.65,0,.31-.18.45-.51.45-.29,0-.48-.17-.58-.51-.12-.38-.36-.58-.73-.58-.52,0-.9.24-1.17.73-.22.4-.32.85-.32,1.36s.09.98.29,1.34c.26.54.7.8,1.31.8.5,0,1.03-.29,1.61-.86l.19.15c-.55.76-1.23,1.13-2.04,1.13h0Z"/>
    <path class="st0" d="M41.7,7.46v-.27c.33,0,.53-.06.62-.17.08-.1.12-.33.12-.7v-1.97c0-.78-.31-1.18-.92-1.18-.43,0-.91.25-1.46.74v2.74c0,.22.08.37.24.45.1.06.27.09.54.09v.27h-2.23v-.27c.24,0,.42-.03.51-.1.13-.1.2-.31.2-.62V1.5c0-.41-.27-.62-.81-.62v-.29l1.41-.43h.15v3.38c.66-.58,1.27-.88,1.79-.88.89,0,1.34.54,1.34,1.6v2.17c0,.34.05.55.17.64.08.08.27.12.58.12v.27h-2.23Z"/>
    <path class="st0" d="M50.23,7.46v-.27c.27,0,.46-.04.56-.11.13-.09.2-.27.2-.55v-2.02c0-.88-.3-1.33-.87-1.33-.46,0-.94.24-1.41.71v2.66c0,.26.07.43.2.52.09.07.28.11.55.12v.27h-2.24v-.27c.26-.01.46-.06.58-.13.11-.07.17-.22.17-.46v-2.2c0-.81-.32-1.22-.94-1.22-.39,0-.84.24-1.34.71v2.66c0,.26.05.43.19.52.1.07.29.11.57.12v.27h-2.25v-.27c.27,0,.46-.04.56-.12.12-.09.19-.26.19-.54v-2.46c0-.26-.08-.44-.23-.55-.12-.07-.32-.11-.59-.13v-.27l1.42-.44h.15v.88c.64-.58,1.22-.88,1.75-.88.61,0,1.01.32,1.22.94.33-.31.6-.52.83-.65.32-.19.65-.29,1-.29.84,0,1.25.52,1.25,1.55v2.31c0,.27.06.46.19.55.09.07.27.11.54.11v.27h-2.23Z"/>
    <path class="st0" d="M52.89,7.46v-.27c.29,0,.47-.06.58-.14.1-.08.15-.27.15-.59v-2.52c0-.34-.28-.53-.83-.55v-.27l1.42-.44h.15v4.03c0,.31.25.47.76.5v.27h-2.24ZM54.34,1.05c-.11.1-.25.14-.41.14-.17,0-.3-.04-.41-.15-.11-.09-.17-.21-.17-.35,0-.18.08-.31.23-.41.11-.07.24-.11.37-.11s.25.05.37.14c.11.1.17.22.17.37s-.05.27-.17.36Z"/>
    <path class="st0" d="M60.35,7.46c-.19,0-.45.02-.8.07h-.14v-.57c-.31.24-.54.41-.68.47-.26.12-.55.19-.86.19-.64,0-1.15-.21-1.56-.65-.44-.45-.65-1.06-.65-1.82,0-.84.26-1.48.81-1.95.42-.35.88-.54,1.39-.54.55,0,1.07.22,1.55.64v-1.86c0-.37-.33-.56-.99-.56v-.3l1.58-.42h.15v6.46c0,.23.07.38.22.46.09.07.26.1.51.1v.27h-.53,0ZM59.4,3.61c-.51-.35-.95-.53-1.33-.53-.64,0-1.08.31-1.32.92-.14.35-.21.76-.21,1.22,0,.57.13,1.05.42,1.41.26.37.63.55,1.07.55s.89-.18,1.38-.55c0,0,0-3.03,0-3.03Z"/>
  </g>
  <g>
    <path class="st0" d="M80.92,1.35h.32v4.2h-.32v-2h-2.27v2h-.32V1.35h.32v1.9h2.27v-1.9Z"/>
    <path class="st0" d="M84.17,2.57h.31l-1.37,3.38c-.22.55-.46.7-.73.7-.08,0-.14-.02-.21-.04v-.28c.07.02.13.03.18.03.19,0,.34-.1.46-.41l.22-.52-1.21-2.87h.32l1.04,2.49,1-2.49h0Z"/>
    <path class="st0" d="M84.95,6.62V2.57h.23l.07.55h.03c.15-.26.53-.6,1.04-.6.74,0,1.37.64,1.37,1.54s-.62,1.54-1.37,1.54c-.5,0-.89-.34-1.04-.6h-.03v1.63h-.3ZM87.38,4.06c0-.74-.49-1.25-1.07-1.25s-1.07.51-1.07,1.25.5,1.25,1.07,1.25,1.07-.51,1.07-1.25Z"/>
    <path class="st0" d="M88.34,5.54v-2.97h.23l.07.49h.03c.14-.25.46-.53.94-.53.67,0,1.18.51,1.18,1.28v1.74h-.3v-1.74c0-.61-.38-1-.91-1s-.94.38-.94,1v1.74h-.3Z"/>
    <path class="st0" d="M91.42,4.06c0-.89.62-1.54,1.39-1.54s1.39.64,1.39,1.54-.62,1.54-1.39,1.54-1.39-.64-1.39-1.54ZM93.89,4.06c0-.74-.5-1.25-1.09-1.25s-1.09.51-1.09,1.25.5,1.25,1.09,1.25,1.09-.51,1.09-1.25Z"/>
    <path class="st0" d="M94.64,4.7h.3c.04.34.3.6.77.6.44,0,.68-.23.68-.53,0-.79-1.66-.43-1.66-1.45,0-.44.36-.8.94-.8s.95.38.98.86h-.3c-.04-.35-.28-.57-.68-.57s-.64.22-.64.5c0,.76,1.66.42,1.66,1.46,0,.46-.36.82-.98.82s-1.03-.44-1.07-.89h0Z"/>
    <path class="st0" d="M99.85,4.21h-2.38c.06.66.5,1.09,1.09,1.09.4,0,.69-.19.89-.52h.31c-.18.42-.61.8-1.21.8-.77,0-1.39-.62-1.39-1.54s.62-1.54,1.39-1.54,1.32.62,1.32,1.43c0,.1,0,.19-.02.26ZM97.47,3.93h2.1c-.02-.66-.47-1.12-1.02-1.12s-1.03.46-1.08,1.12Z"/>
    <path class="st0" d="M100.67,4.71v-1.85h-.56v-.29h.26c.22,0,.34-.11.34-.34v-.47h.26v.81h.71v.29h-.71v1.86c0,.39.21.59.52.59.07,0,.13-.01.2-.03v.28c-.07.02-.13.04-.24.04-.44,0-.77-.33-.77-.88h0Z"/>
    <path class="st0" d="M102.31,5.54V1.35h.3v1.71h.03c.14-.25.46-.53.94-.53.67,0,1.18.51,1.18,1.28v1.74h-.3v-1.74c0-.61-.38-1-.91-1s-.94.38-.94,1v1.74h-.3Z"/>
    <path class="st0" d="M108.07,4.21h-2.38c.06.66.5,1.09,1.09,1.09.4,0,.69-.19.89-.52h.31c-.18.42-.61.8-1.21.8-.77,0-1.39-.62-1.39-1.54s.62-1.54,1.39-1.54,1.32.62,1.32,1.43c0,.1,0,.19-.02.26ZM105.69,3.93h2.1c-.02-.66-.47-1.12-1.02-1.12s-1.03.46-1.08,1.12Z"/>
    <path class="st0" d="M108.74,5.54v-2.97h.23l.07.49h.03c.15-.26.47-.53.86-.53.07,0,.15,0,.21.02v.3c-.07-.02-.14-.02-.2-.02-.49,0-.9.38-.9,1v1.73h-.3Z"/>
    <path class="st0" d="M112.57,3.62v1.92h-.23l-.07-.49h-.03c-.14.26-.47.53-.99.53-.61,0-.97-.39-.97-.87,0-.53.48-.92,1.35-.92h.64v-.18c0-.49-.32-.81-.79-.81s-.7.25-.78.59h-.3c.08-.47.48-.88,1.08-.88.64,0,1.09.44,1.09,1.1h0ZM112.27,4.37v-.29h-.6c-.74,0-1.09.26-1.09.64,0,.34.25.58.7.58.6,0,1-.39,1-.94h0Z"/>
    <path class="st0" d="M113.39,6.62V2.57h.23l.07.55h.03c.15-.26.53-.6,1.04-.6.74,0,1.37.64,1.37,1.54s-.62,1.54-1.37,1.54c-.5,0-.89-.34-1.04-.6h-.03v1.63h-.3ZM115.82,4.06c0-.74-.49-1.25-1.07-1.25s-1.07.51-1.07,1.25.5,1.25,1.07,1.25,1.07-.51,1.07-1.25Z"/>
    <path class="st0" d="M116.71,1.84c0-.13.1-.23.22-.23s.23.1.23.23-.1.22-.23.22-.22-.1-.22-.22ZM116.78,5.54v-2.97h.3v2.97h-.3Z"/>
    <path class="st0" d="M120.43,4.21h-2.38c.06.66.5,1.09,1.09,1.09.4,0,.69-.19.89-.52h.31c-.18.42-.61.8-1.21.8-.77,0-1.39-.62-1.39-1.54s.62-1.54,1.39-1.54,1.32.62,1.32,1.43c0,.1,0,.19-.02.26ZM118.05,3.93h2.1c-.02-.66-.47-1.12-1.02-1.12s-1.03.46-1.08,1.12Z"/>
  </g>
  <line class="st1" x1="69" y1="7.69" x2="69" y2=".12"/>
</svg>