<?xml version="1.0" encoding="UTF-8"?>
<svg id="Logo" xmlns="http://www.w3.org/2000/svg" viewBox="0 0 110.57454 7.81885">
  <defs>
    <style>
      .cls-1 {
        fill: none;
        stroke-width: .5px;
      }

      .cls-1, .cls-2 {
        stroke: #231f20;
        stroke-miterlimit: 10;
      }

      .cls-2 {
        fill: #231f20;
        stroke-width: .25px;
      }
    </style>
  </defs>
  <g>
    <path class="cls-2" d="M5.96582,7.54004l-2.1123-3.49854h-.80322v2.60742c0,.26416.11035.43994.35205.52783.11035.05518.31934.08838.61621.08838v.2749H1.125v-.2749c.63818-.02197.95752-.24219.95752-.67139V1.41211c0-.31885-.09912-.52783-.29736-.63818-.12109-.05469-.34082-.08789-.66016-.09912v-.2749h3.32275c.61621,0,1.14404.11035,1.60596.33008.66016.30811.99023.80322.99023,1.48535,0,.94629-.71484,1.54004-2.13428,1.771l1.57324,2.60742c.16504.28613.37402.47314.61621.56104.15381.06641.396.09912.72607.11035v.2749h-1.85938ZM4.04053.6748c-.31885,0-.5498.0332-.68213.09912-.20898.09912-.30811.28613-.30811.56104v2.43164h.58301c.78125,0,1.34229-.11035,1.68359-.33008.38477-.24219.58301-.66016.58301-1.27637,0-.99023-.62695-1.48535-1.85938-1.48535Z"/>
    <path class="cls-2" d="M11.93896,7.69385c-.26416,0-.45117-.06592-.57227-.19775-.08789-.08789-.16504-.25293-.21973-.49512-.4292.2749-.7373.45117-.92432.52783-.2749.11035-.57227.16504-.90234.16504-.396,0-.71484-.10986-.96777-.30762-.26416-.19824-.38525-.4624-.38525-.78125,0-.51709.36328-.95703,1.1001-1.30908.47314-.22021,1.16602-.41846,2.07959-.60547v-.65967c0-.66016-.31934-1.00146-.93555-1.00146-.2749,0-.47266.05518-.60498.1543-.13184.09863-.25293.26367-.35205.50586-.13184.33008-.33008.48389-.58301.48389-.17627,0-.30811-.04395-.396-.15381-.08789-.09912-.13232-.20898-.13232-.33008,0-.22021.17627-.4292.55029-.62695.396-.20898.86914-.31934,1.44141-.31934,1.16602,0,1.76025.38525,1.76025,1.1333v2.81641c0,.36328.10986.53906.34082.53906.14307,0,.26416-.06592.36328-.20898l.20898.10986c-.1543.37402-.45117.56104-.86914.56104ZM11.14697,4.94385c-.61621.13184-1.1333.31885-1.55127.57178-.49512.30811-.7373.63818-.7373,1.01221,0,.24219.07715.43994.25293.57227.14307.13184.33008.18701.56104.18701.41797,0,.90234-.19824,1.47461-.61621v-1.72705Z"/>
    <path class="cls-2" d="M16.229,7.54004v-.2749c.33008,0,.52832-.05518.61621-.16504.07715-.09912.12109-.33008.12109-.7041v-1.96924c0-.78125-.30811-1.17725-.92432-1.17725-.4292,0-.91309.25293-1.46338.73682v2.73975c0,.21973.07715.37402.24219.45068.09912.05518.2749.08838.53906.08838v.2749h-2.2334v-.2749c.24219,0,.41797-.0332.50635-.09912.13184-.09912.19775-.30811.19775-.61621V1.57715c0-.40723-.2749-.61621-.81396-.61621v-.28613l1.4082-.42871h.15381v3.37744c.66016-.58301,1.26514-.88037,1.79346-.88037.89111,0,1.34229.53906,1.34229,1.59521v2.16748c0,.34131.05469.55029.16504.63818.07666.07715.2749.12109.58301.12109v.2749h-2.2334Z"/>
    <path class="cls-2" d="M22.30078,7.31982c-.396.24219-.84717.37402-1.35352.37402-.78076,0-1.36377-.26367-1.74902-.81396-.30811-.41797-.46191-.91309-.46191-1.50732,0-.7041.20898-1.31982.64893-1.84814.41797-.51709.94629-.78125,1.56201-.78125.62744,0,1.1333.27539,1.5293.80322.24219.35205.396.8252.45117,1.41943h-3.30029v.47314c0,.396.09863.77002.30811,1.11084.28564.48438.7041.71533,1.26514.71533.50586,0,1.04492-.25342,1.59521-.77002l.21973.16504c-.2749.30762-.51709.52783-.71484.65967ZM20.93652,3.0293c-.30811,0-.58301.12109-.80322.35205-.28613.28613-.43994.7041-.46191,1.23242h2.34326c-.02197-1.05615-.37402-1.58447-1.07812-1.58447Z"/>
    <path class="cls-2" d="M23.38916,7.54004v-.2749c.2749,0,.46191-.0332.56104-.09912.14307-.07715.22021-.24219.22021-.49512V1.55518c0-.37402-.28613-.57227-.84717-.57227v-.2749l1.44092-.46191h.1543v6.47998c0,.21973.06592.37402.22021.45068.08789.05518.25293.08838.49463.08838v.2749h-2.24414Z"/>
    <path class="cls-2" d="M34.08848,7.03369c-.45117.41797-1.00098.62744-1.66113.62744-.30811,0-.64941-.07715-1.02344-.23145-.21973-.08789-.40674-.13184-.53906-.13184-.13184,0-.40674.09912-.80322.29688l-.75879-1.82617.2749-.12109c1.06738,1.12256,2.03516,1.67236,2.89355,1.67236.41797,0,.79199-.14307,1.11084-.4292.30811-.2749.47314-.61572.47314-1.03418,0-.48389-.21973-.86914-.66016-1.13281-.26367-.1543-.69287-.30811-1.28711-.4624-.84717-.19775-1.44092-.41797-1.771-.6377-.55029-.35205-.81445-.86914-.81445-1.55127,0-.59424.24219-1.08936.72607-1.47461.40723-.30762.84717-.47266,1.32031-.47266.16504,0,.40723.03271.7373.09863.31885.06641.56104.09912.71484.09912.20898,0,.4292-.04395.64941-.13184l.71484,1.72705-.2749.11035c-.75928-1.05615-1.58447-1.58447-2.47559-1.58447-.42871,0-.78076.13184-1.05615.38525-.2749.25293-.40674.5498-.40674.90186,0,.43994.19775.79199.61621,1.03418.2749.17627.77002.34131,1.47412.50635.69287.16504,1.20996.35205,1.56201.56104.62695.396.94629.93506.94629,1.63916,0,.62695-.23096,1.14404-.68213,1.56201Z"/>
    <path class="cls-2" d="M37.33262,7.6167c-.78125,0-1.36426-.26367-1.76025-.79199-.33008-.41797-.48389-.92383-.48389-1.51807,0-.71533.21973-1.33105.68213-1.8374.48389-.52783,1.08887-.80322,1.82617-.80322.41797,0,.81396.09912,1.16602.27539.34131.17578.51709.396.51709.64893,0,.30811-.17578.45117-.50586.45117-.28613,0-.48438-.16504-.5835-.50635-.12061-.38477-.36279-.58301-.72607-.58301-.51709,0-.90186.24219-1.16602.72607-.22021.396-.31885.84717-.31885,1.36426,0,.52832.08789.979.28613,1.34229.26367.53906.7041.80322,1.30908.80322.49512,0,1.03418-.28613,1.60596-.8584l.18701.1543c-.5498.75879-1.23193,1.13281-2.03516,1.13281Z"/>
    <path class="cls-2" d="M42.70078,7.46289v-.2749c.33008,0,.52832-.05518.61621-.16504.07666-.09912.12109-.33008.12109-.7041v-1.96924c0-.78125-.30811-1.17725-.92432-1.17725-.4292,0-.91309.25293-1.46338.73682v2.73975c0,.21973.07715.37402.24219.45068.09912.05518.2749.08838.53906.08838v.2749h-2.2334v-.2749c.24219,0,.41797-.0332.50635-.09912.13184-.09912.19775-.30811.19775-.61621V1.5c0-.40723-.2749-.61621-.81396-.61621v-.28613l1.4082-.42871h.15381v3.37744c.66016-.58301,1.26514-.88037,1.79346-.88037.89111,0,1.34229.53906,1.34229,1.59521v2.16748c0,.34131.05469.55029.16504.63818.07666.07715.2749.12109.58301.12109v.2749h-2.2334Z"/>
    <path class="cls-2" d="M51.22617,7.46289v-.2749c.2749,0,.4624-.04395.56104-.11035.13232-.08789.19824-.2749.19824-.5498v-2.02441c0-.87988-.29688-1.33105-.86914-1.33105-.46191,0-.93506.2417-1.4082.71484v2.6626c0,.26416.06592.4292.19775.51709.08838.06592.27539.10986.55029.12109v.2749h-2.24414v-.2749c.26367-.01123.46191-.05518.58301-.13232.10986-.06592.16504-.21973.16504-.46191v-2.2002c0-.81445-.31934-1.22119-.93506-1.22119-.38525,0-.83643.2417-1.34229.71484v2.6626c0,.26416.05469.4292.18701.51709.09912.06592.28613.10986.57178.12109v.2749h-2.25488v-.2749c.2749,0,.46191-.04395.56104-.12109.12061-.08789.18701-.26416.18701-.53906v-2.46436c0-.26416-.07715-.43994-.23096-.55029-.12109-.06592-.31934-.10986-.59424-.13184v-.2749l1.41895-.44043h.1543v.88037c.63818-.58301,1.22119-.88037,1.74902-.88037.60547,0,1.01221.31934,1.22119.93555.33008-.30811.60498-.51709.8252-.64941.31885-.18701.64893-.28613,1.00098-.28613.83643,0,1.25439.51709,1.25439,1.55127v2.31055c0,.2749.05518.46191.18701.5498.08789.06641.2749.11035.53906.11035v.2749h-2.2334Z"/>
    <path class="cls-2" d="M53.88731,7.46289v-.2749c.28613,0,.47314-.05518.58301-.14307.09912-.07715.1543-.2749.1543-.59424v-2.51953c0-.34082-.27539-.52783-.8252-.5498v-.2749l1.41895-.44043h.1543v4.02686c0,.30811.25293.47314.75928.49512v.2749h-2.24463ZM55.33945,1.04883c-.10986.09912-.25293.14307-.40674.14307-.16504,0-.29736-.04395-.40723-.15381-.10986-.08789-.16504-.20898-.16504-.35205,0-.17627.07715-.30811.23096-.40723.10986-.06592.24219-.10986.37402-.10986.13232,0,.25293.05469.37402.14307.11035.09863.16504.21973.16504.37402,0,.15381-.05469.2749-.16504.36279Z"/>
    <path class="cls-2" d="M61.3458,7.46289c-.18701,0-.45068.02197-.80273.06592h-.14307v-.57178c-.30811.2417-.53906.40674-.68213.47266-.26416.12109-.55029.18701-.8584.18701-.6377,0-1.15479-.20898-1.56201-.64893-.43994-.45117-.64893-1.05615-.64893-1.81543,0-.83594.26367-1.48486.81396-1.94727.41797-.35205.87988-.53906,1.38623-.53906.5498,0,1.06689.22021,1.55127.63818v-1.85938c0-.37402-.33008-.56104-.99023-.56104v-.29688l1.58398-.41797h.1543v6.45801c0,.23096.06592.38477.22021.46191.08789.06592.26367.09912.50586.09912v.2749h-.52832ZM60.4,3.6123c-.50635-.35205-.94629-.52783-1.33154-.52783-.6377,0-1.07812.30762-1.31982.92383-.14307.35205-.20898.75928-.20898,1.22119,0,.57227.13184,1.04541.41797,1.4082.26416.37402.62695.55029,1.06689.55029.44043,0,.89111-.17627,1.37549-.55029v-3.02539Z"/>
  </g>
  <g>
    <path class="cls-2" d="M70.91536,1.34644h.31787v4.19775h-.31787v-1.99707h-2.27295v1.99707h-.31787V1.34644h.31787v1.90088h2.27295v-1.90088Z"/>
    <path class="cls-2" d="M74.17415,2.57007h.31152l-1.37305,3.38135c-.22217.5459-.45605.70215-.73145.70215-.07812,0-.14404-.01855-.20996-.04199v-.27637c.06592.01855.12598.03027.17969.03027.18604,0,.33594-.0957.46191-.41406l.21582-.51514-1.21143-2.86621h.31787l1.04346,2.49414.99561-2.49414Z"/>
    <path class="cls-2" d="M74.94856,6.62329V2.57007h.22754l.07227.55127h.02979c.1499-.25781.53369-.59961,1.0376-.59961.74365,0,1.36719.63574,1.36719,1.53516s-.62354,1.53516-1.36719,1.53516c-.50391,0-.8877-.33545-1.0376-.59961h-.02979v1.63086h-.2998ZM77.38313,4.05688c0-.7373-.4917-1.24707-1.06738-1.24707-.56982,0-1.06738.50977-1.06738,1.24707,0,.73779.49756,1.24756,1.06738,1.24756.57568,0,1.06738-.50977,1.06738-1.24756Z"/>
    <path class="cls-2" d="M78.34456,5.54419v-2.97412h.22803l.07178.48535h.02979c.14404-.25195.46191-.53369.93555-.53369.67188,0,1.18164.50977,1.18164,1.2832v1.73926h-.2998v-1.73926c0-.61133-.38379-.99512-.90576-.99512-.53369,0-.94141.38379-.94141.99512v1.73926h-.2998Z"/>
    <path class="cls-2" d="M81.41682,4.05688c0-.89355.62354-1.53516,1.38525-1.53516s1.38525.6416,1.38525,1.53516-.62354,1.53516-1.38525,1.53516-1.38525-.6416-1.38525-1.53516ZM83.88753,4.05688c0-.7373-.50391-1.24707-1.08545-1.24707s-1.08545.50977-1.08545,1.24707c0,.73779.50391,1.24756,1.08545,1.24756s1.08545-.50977,1.08545-1.24756Z"/>
    <path class="cls-2" d="M84.64485,4.70483h.2998c.04199.33545.2998.59961.76758.59961.44336,0,.67725-.23389.67725-.53369,0-.78564-1.66113-.43213-1.66113-1.44531,0-.44385.35986-.80371.94189-.80371.56348,0,.94727.38379.97705.85742h-.2998c-.04199-.35352-.28174-.56934-.67725-.56934-.41406,0-.6416.22168-.6416.50342,0,.75586,1.66064.41992,1.66064,1.45752,0,.45557-.35938.82129-.97705.82129-.62988,0-1.03174-.4375-1.06738-.88721Z"/>
    <path class="cls-2" d="M89.84553,4.21313h-2.375c.06006.65967.50391,1.09131,1.08545,1.09131.396,0,.68994-.18604.89355-.51562h.30615c-.18018.41943-.61182.80322-1.20557.80322-.77344,0-1.38525-.62354-1.38525-1.53516,0-.89355.62354-1.53516,1.38525-1.53516.73779,0,1.31934.62354,1.31934,1.43311,0,.10205-.00586.18604-.02393.2583ZM87.47053,3.93091h2.09912c-.02393-.65967-.46777-1.12109-1.01953-1.12109-.5459,0-1.02539.45557-1.07959,1.12109Z"/>
    <path class="cls-2" d="M90.66878,4.71069v-1.85303h-.56348v-.2876h.26367c.22217,0,.33594-.11426.33594-.33594v-.47363h.26367v.80957h.71387v.2876h-.71387v1.85889c0,.38965.20996.58789.51611.58789.07178,0,.13184-.01221.19775-.03027v.27588c-.06592.02393-.13184.04199-.23975.04199-.44385,0-.77393-.32959-.77393-.88135Z"/>
    <path class="cls-2" d="M92.31282,5.54419V1.34644h.2998v1.70898h.03027c.14355-.25195.46143-.53369.93555-.53369.67139,0,1.18115.50977,1.18115,1.2832v1.73926h-.2998v-1.73926c0-.61133-.38379-.99512-.90576-.99512-.53369,0-.94141.38379-.94141.99512v1.73926h-.2998Z"/>
    <path class="cls-2" d="M98.06526,4.21313h-2.375c.06006.65967.50391,1.09131,1.08545,1.09131.396,0,.68994-.18604.89355-.51562h.30615c-.18018.41943-.61182.80322-1.20557.80322-.77344,0-1.38525-.62354-1.38525-1.53516,0-.89355.62354-1.53516,1.38525-1.53516.73779,0,1.31934.62354,1.31934,1.43311,0,.10205-.00586.18604-.02393.2583ZM95.69026,3.93091h2.09912c-.02393-.65967-.46777-1.12109-1.01953-1.12109-.5459,0-1.02539.45557-1.07959,1.12109Z"/>
    <path class="cls-2" d="M98.74495,5.54419v-2.97412h.22803l.07178.48535h.02979c.1499-.25781.46777-.53369.86377-.53369.07178,0,.1499.00635.20996.02393v.2998c-.06592-.01758-.13818-.02393-.2041-.02393-.4917,0-.89941.38379-.89941.99561v1.72705h-.2998Z"/>
    <path class="cls-2" d="M102.5721,3.61938v1.9248h-.22754l-.07227-.48584h-.02979c-.14404.26416-.47363.53369-.98975.53369-.60547,0-.97119-.38965-.97119-.86963,0-.52734.47949-.92334,1.35498-.92334h.63574v-.17969c0-.4917-.31787-.80957-.78564-.80957-.44971,0-.69531.25195-.7793.59375h-.2998c.07764-.47412.47949-.88184,1.0791-.88184.63574,0,1.08545.44385,1.08545,1.09766ZM102.27229,4.3689v-.28809h-.59961c-.73779,0-1.09131.25781-1.09131.6416,0,.33594.24561.58203.69531.58203.6001,0,.99561-.39014.99561-.93555Z"/>
    <path class="cls-2" d="M103.38899,6.62329V2.57007h.22754l.07227.55127h.02979c.1499-.25781.53369-.59961,1.0376-.59961.74365,0,1.36719.63574,1.36719,1.53516s-.62354,1.53516-1.36719,1.53516c-.50391,0-.8877-.33545-1.0376-.59961h-.02979v1.63086h-.2998ZM105.82356,4.05688c0-.7373-.4917-1.24707-1.06738-1.24707-.56982,0-1.06738.50977-1.06738,1.24707,0,.73779.49756,1.24756,1.06738,1.24756.57568,0,1.06738-.50977,1.06738-1.24756Z"/>
    <path class="cls-2" d="M106.71272,1.84399c0-.13184.10205-.22754.22217-.22754.12598,0,.22803.0957.22803.22754,0,.12598-.10205.22217-.22803.22217-.12012,0-.22217-.09619-.22217-.22217ZM106.78499,5.54419v-2.97412h.2998v2.97412h-.2998Z"/>
    <path class="cls-2" d="M110.42561,4.21313h-2.375c.06006.65967.50391,1.09131,1.08545,1.09131.396,0,.68994-.18604.89355-.51562h.30615c-.18018.41943-.61182.80322-1.20557.80322-.77344,0-1.38525-.62354-1.38525-1.53516,0-.89355.62354-1.53516,1.38525-1.53516.73779,0,1.31934.62354,1.31934,1.43311,0,.10205-.00586.18604-.02393.2583ZM108.05061,3.93091h2.09912c-.02393-.65967-.46777-1.12109-1.01953-1.12109-.5459,0-1.02539.45557-1.07959,1.12109Z"/>
  </g>
  <line class="cls-1" x1="65.003" y1=".125" x2="64.83568" y2="7.69385"/>
</svg>