<?xml version="1.0" encoding="UTF-8"?>
<svg id="Layer_1" xmlns="http://www.w3.org/2000/svg" version="1.1" viewBox="0 0 40.12 17.55">
  <!-- Generator: Adobe Illustrator 29.8.2, SVG Export Plug-In . SVG Version: 2.1.1 Build 3)  -->
  <path d="M5.28,8.4c-.44-1.01-.88-2.01-1.38-3.02h-1.11c-.06,1.01-.17,2.01-.28,3.02H.8C1.12,5.6,1.39,2.8.56,0h3.41C5.61,0,7.19,1.13,7.3,2.71c.08,1.07-.64,1.98-1.72,2.4.61,1.1,1.14,2.19,1.66,3.29h-1.97.01ZM2.65,1.63c.11.73.17,1.46.18,2.18h1.64c.67,0,1.17-.46,1.13-1.09-.05-.64-.63-1.09-1.3-1.09-.55,0-1.09,0-1.65,0Z"/>
  <path d="M13.28,4.74c-.05,1.22-.2,2.44-.35,3.66h-1.21c-.06-.2-.13-.4-.19-.6h-.06c-.28.26-.88.76-1.82.76-1.15,0-1.95-.8-1.84-1.82.13-1.26,1.34-2.04,3.08-2.04h.77v-.12c.02-.64-.36-1-.92-1s-.8.37-.86.62h-1.63c.11-1.03.8-2.07,2.41-2.07s2.69,1.06,2.62,2.61h0ZM11.57,6.09c0-.1.02-.21.03-.31h-.82c-.92,0-1.28.34-1.32.79-.04.37.21.65.74.65.77,0,1.33-.55,1.38-1.13h-.01Z"/>
  <path d="M14.34,8.4C14.7,5.6,15.01,2.8,14.23,0h1.64c.27.96.41,1.92.46,2.88h.06c.13-.19.71-.76,1.6-.76,1.34,0,2.47,1.06,2.38,2.66-.06,1.2-.22,2.41-.38,3.61h-1.62c.16-1.16.3-2.31.37-3.47.04-.72-.48-1.29-1.17-1.29s-1.2.58-1.24,1.29c-.06,1.16-.21,2.31-.36,3.47h-1.63Z"/>
  <path d="M27.34,5.92h-4.39c.11.74.6,1.18,1.32,1.18.64,0,1-.32,1.14-.46h1.71c-.42.83-1.59,1.91-3.02,1.91-1.73,0-2.88-1.44-2.74-3.21.15-1.74,1.44-3.21,3.1-3.21s3.16,1.34,3.01,3.12c-.03.32-.09.56-.13.68h0ZM23.04,4.76h2.9c-.15-.71-.7-1.19-1.4-1.19s-1.26.46-1.49,1.19h-.01Z"/>
  <path d="M28.24,8.4C28.64,5.6,28.99,2.8,28.26,0h1.64c.73,2.8.37,5.6-.04,8.4,0,0-1.62,0-1.62,0Z"/>
  <path d="M0,14.75h1.69c.15.71.71,1.27,1.64,1.27.87,0,1.21-.41,1.16-.88-.07-1.6-4.42-.83-4.26-3.86.12-1.38,1.32-2.43,3.16-2.43s2.76,1.2,2.7,2.73h-1.7c0-.68-.4-1.2-1.17-1.2s-1.24.41-1.29.92c-.06,1.58,4.12.79,4.25,3.78.12,1.39-.61,2.47-2.5,2.47s-3.49-1.21-3.68-2.81h0Z"/>
  <path d="M6.93,14.34c-.07-1.74,1.55-3.21,3.21-3.21s2.51,1.27,2.74,2.46h-1.61c-.07-.26-.45-.95-1.24-.95-.83,0-1.53.71-1.49,1.7.04,1,.8,1.7,1.64,1.7.78,0,1.09-.7,1.15-.95h1.61c-.16,1.19-.87,2.46-2.43,2.46-1.67,0-3.52-1.48-3.57-3.21h0Z"/>
  <path d="M14.4,17.4c-.74-2.8-.41-5.6-.05-8.4h1.62c-.13.96-.25,1.92-.33,2.88h.06c.15-.19.82-.76,1.71-.76,1.34,0,2.17,1.06,2.15,2.66,0,1.2.11,2.41.42,3.61h-1.61c-.3-1.16-.42-2.31-.43-3.47,0-.72-.48-1.29-1.16-1.29s-1.23.58-1.23,1.29c0,1.16.13,2.31.44,3.47h-1.6.01Z"/>
  <path d="M29.48,13.73c-.02,1.22.08,2.45.38,3.67h-1.6c-.3-1.2-.4-2.41-.39-3.61,0-.73-.37-1.15-.89-1.15s-.97.42-.98,1.15c0,1.2.09,2.41.4,3.61h-1.6c-.31-1.2-.41-2.41-.4-3.61,0-.73-.37-1.15-.89-1.15s-.97.42-.97,1.15c0,1.2.1,2.41.41,3.61h-1.61c-.53-2.04-.48-4.08-.27-6.12h1.21c.07.2.13.4.2.6h.06c.15-.19.72-.76,1.54-.76.92,0,1.39.52,1.59.86.32-.38,1.02-.86,1.85-.86,1.33,0,2.02.92,1.99,2.6h-.03Z"/>
  <path d="M31.14,9.59c.08-.52.54-.91,1.04-.91s.84.4.76.91c-.08.52-.54.91-1.03.91s-.85-.4-.77-.91ZM31.2,17.4c-.5-2.04-.43-4.08-.2-6.12h1.62c-.24,2.04-.32,4.08.18,6.12h-1.61.01Z"/>
  <path d="M33.51,14.34c0-1.85,1.54-3.21,3.01-3.21.86,0,1.4.5,1.5.68h.06c.1-.94.25-1.87.39-2.81h1.62c-.45,2.8-.86,5.6-.2,8.4h-1.2c-.13-.2-.26-.4-.39-.6h-.06c-.13.2-.61.76-1.55.76-1.47,0-3.18-1.37-3.19-3.21h.01ZM37.94,14.34c0-1.01-.6-1.7-1.35-1.7s-1.48.7-1.47,1.7c0,1.01.77,1.7,1.52,1.7s1.3-.7,1.3-1.7Z"/>
</svg>