<?xml version="1.0" encoding="UTF-8"?>
<svg id="Layer_1" xmlns="http://www.w3.org/2000/svg" version="1.1" viewBox="0 0 60.59 21.77">
  <!-- Generator: Adobe Illustrator 29.8.1, SVG Export Plug-In . SVG Version: 2.1.1 Build 2)  -->
  <defs>
    <style>
      .st0, .st1, .st2, .st3, .st4, .st5 {
        fill: none;
        stroke-miterlimit: 10;
      }

      .st0, .st1, .st2, .st3, .st4, .st5, .st6 {
        stroke: #fff;
      }

      .st1 {
        stroke-width: .8px;
      }

      .st2 {
        stroke-width: .5px;
      }

      .st3 {
        stroke-width: .7px;
      }

      .st4 {
        stroke-width: .6px;
      }

      .st5 {
        stroke-width: .9px;
      }

      .st6 {
        fill: #231f20;
      }
    </style>
  </defs>
  <path class="st6" d="M33.04,10.32l-2.06-3.41h-.78v2.54c0,.26.11.43.34.51.11.05.31.09.6.09v.27h-2.82v-.27c.62-.02.93-.24.93-.65v-5.05c0-.31-.1-.51-.29-.62-.12-.05-.33-.09-.64-.1v-.27h3.23c.6,0,1.11.11,1.56.32.64.3.96.78.96,1.45,0,.92-.7,1.5-2.08,1.72l1.53,2.54c.16.28.36.46.6.55.15.06.39.1.71.11v.27h-1.81ZM31.17,3.63c-.31,0-.54.03-.66.1-.2.1-.3.28-.3.55v2.37h.57c.76,0,1.31-.11,1.64-.32.38-.24.57-.64.57-1.24,0-.96-.61-1.45-1.81-1.45Z"/>
  <path class="st6" d="M38.97,10.47c-.26,0-.44-.06-.56-.19-.09-.09-.16-.25-.21-.48-.42.27-.72.44-.9.51-.27.11-.56.16-.88.16-.39,0-.7-.11-.94-.3-.26-.19-.37-.45-.37-.76,0-.5.35-.93,1.07-1.28.46-.21,1.14-.41,2.02-.59v-.64c0-.64-.31-.97-.91-.97-.27,0-.46.05-.59.15-.13.1-.25.26-.34.49-.13.32-.32.47-.57.47-.17,0-.3-.04-.39-.15-.09-.1-.13-.2-.13-.32,0-.21.17-.42.54-.61.39-.2.85-.31,1.4-.31,1.14,0,1.71.38,1.71,1.1v2.74c0,.35.11.53.33.53.14,0,.26-.06.35-.2l.2.11c-.15.36-.44.55-.85.55ZM38.2,7.79c-.6.13-1.1.31-1.51.56-.48.3-.72.62-.72.99,0,.24.08.43.25.56.14.13.32.18.55.18.41,0,.88-.19,1.43-.6v-1.68Z"/>
  <path class="st6" d="M43.26,10.32v-.27c.32,0,.51-.05.6-.16.07-.1.12-.32.12-.69v-1.92c0-.76-.3-1.15-.9-1.15-.42,0-.89.25-1.42.72v2.67c0,.21.08.36.24.44.1.05.27.09.53.09v.27h-2.17v-.27c.24,0,.41-.03.49-.1.13-.1.19-.3.19-.6v-4.84c0-.4-.27-.6-.79-.6v-.28l1.37-.42h.15v3.29c.64-.57,1.23-.86,1.75-.86.87,0,1.31.52,1.31,1.55v2.11c0,.33.05.54.16.62.08.08.27.12.57.12v.27h-2.17Z"/>
  <path class="st6" d="M49.28,10.1c-.39.24-.82.36-1.32.36-.76,0-1.33-.26-1.7-.79-.3-.41-.45-.89-.45-1.47,0-.69.2-1.29.63-1.8.41-.5.92-.76,1.52-.76s1.1.27,1.49.78c.24.34.39.8.44,1.38h-3.21v.46c0,.39.1.75.3,1.08.28.47.69.7,1.23.7.49,0,1.02-.25,1.55-.75l.21.16c-.27.3-.5.51-.7.64ZM47.95,5.93c-.3,0-.57.12-.78.34-.28.28-.43.69-.45,1.2h2.28c-.02-1.03-.36-1.54-1.05-1.54Z"/>
  <path class="st6" d="M50.45,10.32v-.27c.27,0,.45-.03.55-.1.14-.08.21-.24.21-.48v-4.98c0-.36-.28-.56-.83-.56v-.27l1.4-.45h.15v6.31c0,.21.06.36.21.44.09.05.25.09.48.09v.27h-2.19Z"/>
  <path class="st6" d="M32.98,17.94c-.44.41-.97.61-1.62.61-.3,0-.63-.07-1-.22-.21-.09-.4-.13-.53-.13s-.4.1-.78.29l-.74-1.78.27-.12c1.04,1.09,1.98,1.63,2.82,1.63.41,0,.77-.14,1.08-.42.3-.27.46-.6.46-1.01,0-.47-.21-.85-.64-1.1-.26-.15-.67-.3-1.25-.45-.83-.19-1.4-.41-1.72-.62-.54-.34-.79-.85-.79-1.51,0-.58.24-1.06.71-1.44.4-.3.83-.46,1.29-.46.16,0,.4.03.72.1.31.06.55.1.7.1.2,0,.42-.04.63-.13l.7,1.68-.27.11c-.74-1.03-1.54-1.54-2.41-1.54-.42,0-.76.13-1.03.38s-.4.54-.4.88c0,.43.19.77.6,1.01.27.17.75.33,1.43.49.67.16,1.18.34,1.52.55.61.39.92.91.92,1.6,0,.61-.22,1.11-.66,1.52Z"/>
  <path class="st6" d="M36.25,18.51c-.76,0-1.33-.26-1.71-.77-.32-.41-.47-.9-.47-1.48,0-.7.21-1.3.66-1.79.47-.51,1.06-.78,1.78-.78.41,0,.79.1,1.14.27.33.17.5.39.5.63,0,.3-.17.44-.49.44-.28,0-.47-.16-.57-.49-.12-.38-.35-.57-.71-.57-.5,0-.88.24-1.14.71-.21.39-.31.82-.31,1.33s.09.95.28,1.31c.26.53.69.78,1.27.78.48,0,1.01-.28,1.56-.84l.18.15c-.54.74-1.2,1.1-1.98,1.1Z"/>
  <path class="st6" d="M41.58,18.36v-.27c.32,0,.51-.05.6-.16.08-.1.12-.32.12-.69v-1.92c0-.76-.3-1.15-.9-1.15-.42,0-.89.25-1.42.72v2.67c0,.21.08.36.24.44.1.05.27.09.53.09v.27h-2.17v-.27c.24,0,.41-.03.49-.1.13-.1.19-.3.19-.6v-4.84c0-.4-.27-.6-.79-.6v-.28l1.37-.42h.15v3.29c.64-.57,1.23-.86,1.75-.86.87,0,1.31.52,1.31,1.55v2.11c0,.33.05.54.16.62.08.08.27.12.57.12v.27h-2.17Z"/>
  <path class="st6" d="M50,18.36v-.27c.27,0,.45-.04.55-.11.13-.09.19-.27.19-.54v-1.97c0-.86-.29-1.3-.85-1.3-.45,0-.91.24-1.37.7v2.59c0,.26.06.42.19.5.09.06.27.11.54.12v.27h-2.18v-.27c.26-.01.45-.05.57-.13.11-.06.16-.21.16-.45v-2.14c0-.79-.31-1.19-.91-1.19-.38,0-.81.24-1.31.7v2.59c0,.26.05.42.18.5.1.06.28.11.56.12v.27h-2.2v-.27c.27,0,.45-.04.55-.12.12-.09.18-.26.18-.52v-2.4c0-.26-.07-.43-.22-.54-.12-.06-.31-.11-.58-.13v-.27l1.38-.43h.15v.86c.62-.57,1.19-.86,1.7-.86.59,0,.99.31,1.19.91.32-.3.59-.5.8-.63.31-.18.63-.28.98-.28.81,0,1.22.5,1.22,1.51v2.25c0,.27.05.45.18.54.09.06.27.11.53.11v.27h-2.17Z"/>
  <path class="st6" d="M52.7,18.36v-.27c.28,0,.46-.05.57-.14.1-.08.15-.27.15-.58v-2.45c0-.33-.27-.51-.8-.54v-.27l1.38-.43h.15v3.92c0,.3.25.46.74.48v.27h-2.19ZM54.12,12.11c-.11.1-.25.14-.4.14-.16,0-.29-.04-.4-.15-.11-.08-.16-.2-.16-.34,0-.17.07-.3.22-.4.11-.06.24-.11.36-.11s.25.05.36.14c.11.1.16.21.16.36s-.05.27-.16.35Z"/>
  <path class="st6" d="M60.07,18.36c-.18,0-.44.02-.78.06h-.14v-.56c-.3.24-.52.4-.66.46-.26.12-.54.18-.83.18-.62,0-1.12-.2-1.52-.63-.43-.44-.63-1.03-.63-1.77,0-.81.26-1.45.79-1.9.41-.34.86-.52,1.35-.52.54,0,1.04.21,1.51.62v-1.81c0-.36-.32-.55-.96-.55v-.29l1.54-.41h.15v6.29c0,.23.06.38.21.45.09.06.26.1.49.1v.27h-.51ZM59.15,14.61c-.49-.34-.92-.51-1.3-.51-.62,0-1.05.3-1.29.9-.14.34-.2.74-.2,1.19,0,.56.13,1.02.41,1.37.26.36.61.54,1.04.54s.87-.17,1.34-.54v-2.95Z"/>
  <g>
    <circle class="st0" cx="15.02" cy="12.61" r="2.86"/>
    <path class="st5" d="M17.99,10.16c1.08.64,1.19,2.24.86,3.77-.17.77-.73,1.36-1.07,1.66-1.09.96-2.52,1.1-3.18,1.09-2.5-.05-4.82-2.05-4.82-4.25,0-2.06,1.67-3.94,3.03-4.17,1.99-.34,4.96.63,5.18,1.91Z"/>
    <path class="st1" d="M18.1,7.72c2.16.56,2.67,3.1,2.42,5.65-.13,1.31-1.03,2.31-1.46,2.74-1.73,1.71-4.11,1.8-4.89,1.77-3.43-.12-6.77-2.82-6.77-5.64,0-2.54,2.06-5.13,3.21-5.48,2.44-.74,7.05-.02,7.49.95Z"/>
    <path class="st3" d="M18.21,5.27c3.24.47,4.15,3.96,3.98,7.54-.08,1.86-1.32,3.26-1.85,3.82-2.35,2.47-5.69,2.5-6.6,2.46-4.36-.18-8.73-3.59-8.73-7.03,0-3.02,2.43-6.38,3.38-6.79,2.87-1.24,9.15-.67,9.81,0Z"/>
    <path class="st4" d="M18.32,2.83c4.21,1.04,5.63,4.83,5.54,9.43-.04,2.4-1.61,4.21-2.23,4.9-2.96,3.24-7.28,3.19-8.31,3.14-5.28-.25-10.69-4.37-10.69-8.42,0-3.5,2.79-7.65,3.56-8.1,3.23-1.87,11.2-1.18,12.13-.95Z"/>
    <path class="st2" d="M25.54,11.69c0,2.94-1.9,5.17-2.62,5.98-3.56,4-8.87,3.89-10.02,3.83C6.69,21.18.25,16.36.25,11.69.25,7.71,3.38,2.76,3.98,2.29,7.41-.38,17.33.32,18.43.38c5.39.31,7.11,5.69,7.11,11.32Z"/>
  </g>
</svg>