<?xml version="1.0" encoding="UTF-8"?>
<svg id="Layer_1" xmlns="http://www.w3.org/2000/svg" version="1.1" viewBox="0 0 110 135">
  <!-- Generator: Adobe Illustrator 30.0.0, SVG Export Plug-In . SVG Version: 2.1.1 Build 123)  -->
  <path d="M80.75,38.94c0-.7-.37-1.35-.99-1.7-.61-.35-1.36-.35-1.97,0l-30.62,17.71c-.61.35-.98,1-.98,1.7s.37,1.35.99,1.7l11.38,6.56c1.75,1.01,3.86.86,5.42-.3-.21,1.92.72,3.83,2.46,4.84l11.38,6.56c.45.26,1,.33,1.49.2.16-.04.32-.11.47-.2.61-.35.98-1,.98-1.7l-.02-35.38h.01ZM67.94,64.84c.75-1.69.13-3.58-1.49-4.51-1.62-.93-3.56-.52-4.65.97-.33.37-.85.45-1.28.21l-8.43-4.86,21.3-12.32-4.89,8.49c-.54.94-.22,2.15.72,2.69.47.27,1.01.33,1.49.2.48-.13.93-.45,1.19-.92l4.89-8.49v24.6l-8.4-4.85c-.43-.25-.61-.75-.46-1.21h.01,0Z"/>
  <path d="M33.04,69.06c-.48-1-1.67-1.42-2.67-.94s-1.42,1.67-.94,2.67c.05.11,1.29,2.68,3.53,5.42.4.48.97.73,1.55.73.45,0,.89-.15,1.27-.45.85-.7.98-1.96.28-2.81-1.9-2.33-2.99-4.55-3.02-4.61v-.02Z"/>
  <path d="M48.16,78.44c-2.22.81-4.38.74-6.51-.2-1.01-.45-2.19,0-2.64,1.02-.45,1.01,0,2.19,1.02,2.64,1.66.74,3.37,1.11,5.1,1.11,1.46,0,2.94-.27,4.41-.8,1.04-.38,1.57-1.53,1.19-2.56-.38-1.04-1.53-1.57-2.56-1.19v-.02Z"/>
  <path d="M60.6,69.48c-.9-.65-2.15-.45-2.79.44-1.22,1.67-2.45,3.14-3.66,4.36-.78.79-.77,2.05.01,2.83.39.39.9.58,1.41.58s1.03-.2,1.42-.59c1.35-1.37,2.72-2.99,4.05-4.83.65-.89.45-2.14-.44-2.79h0Z"/>
</svg>